# xmcd
#
# Track frame offsets:
#	150
#	13130
#	28564
#	46571
#	62223
#	80002
#	94697
#	109384
#	124883
#	139035
#	161555
#	174955
#	188107
#	203100
#	218226
#	233344
#	251289
#	269395
#	287939
#	304668
#	321648
#	342630
#
# Disc length: 4701 seconds
#
# Revision: 1
# Processed by: cddbd v1.5.2PL0 Copyright (c) Steve Scherf et al.
# Submitted via: audiograbber 1.83.01
#
DISCID=40125b16
DTITLE=diverse - Blues News Coll. 10
DYEAR=2015
DGENRE=Blues
TTITLE0=Alex Behning - Fünf Finger Blues
TTITLE1=Greyhound George and Karl Valta - Hole In My Pocket
TTITLE2=32-20 Blues Band - Call You Trouble
TTITLE3=Alexander and Maximilian Blume - Old Boogie
TTITLE4=Down Home Percolators - Sugar Mama
TTITLE5=Brother Snakeoil and The Medicine Men - High Society Woman
TTITLE6=Jay Ottaway - Walking Next To Me
TTITLE7=Big Beat Motors - Keep Your Hands To Yourself
TTITLE8=Little Chevy - Honey
TTITLE9=Dieselknecht - Kolbenfenster Blues
TTITLE10=Professor Bottleneck and The Juke Kings - Never Give Up
TTITLE11=Jens Hausmann - Jerry's Blues
TTITLE12=Wolfgang Schuster und Band - Bound To The Blues
TTITLE13=Slinky and P'tit Loup - Movin' On
TTITLE14=mcebel one man bluesband - I'd Rather Go Blind
TTITLE15=Dirty Wires - Lost My Baby
TTITLE16=Red Fox Bluesband - Congo Square
TTITLE17=Blues Bureau - Voodoo Boogie
TTITLE18=The Blues Overdrive - Woman Of Love
TTITLE19=Blues Transfusion - Changin'
TTITLE20=Badge feat. Blind Dog Mayer - Way Past Midnight
TTITLE21=2nd Bridge Bluesband - Genervt
EXTD=
EXTT0=
EXTT1=
EXTT2=
EXTT3=
EXTT4=
EXTT5=
EXTT6=
EXTT7=
EXTT8=
EXTT9=
EXTT10=
EXTT11=
EXTT12=
EXTT13=
EXTT14=
EXTT15=
EXTT16=
EXTT17=
EXTT18=
EXTT19=
EXTT20=
EXTT21=
PLAYORDER=
